name Walk6.mot
datacolumns 19
datarows 20
range 2.10500000 2.20000000
endheader

                time	   L_ground_force_vx	   L_ground_force_vy	   L_ground_force_vz	   L_ground_force_px	   L_ground_force_py	   L_ground_force_pz	   R_ground_force_vx	   R_ground_force_vy	   R_ground_force_vz	   R_ground_force_px	   R_ground_force_py	   R_ground_force_pz	   L_ground_torque_x	   L_ground_torque_y	   L_ground_torque_z	   R_ground_torque_x	   R_ground_torque_y	   R_ground_torque_z	
          2.10500000	          6.93980528	         44.79049986	         -5.10479349	          0.00150621	          0.00000000	          0.00092988	         -0.00000000	          0.00000000	          0.00000000	          0.00000000	          0.00000000	          0.00000000	          0.00000000	         -0.00567262	          0.00000000	          0.00000000	         -0.00000000	          0.00000000	
          2.11000000	          6.88828977	         75.31186536	         -7.90577321	         -0.10481295	          0.00000000	         -0.01498397	         -0.00000000	          0.00000000	          0.00000000	          0.00000000	          0.00000000	          0.00000000	          0.00000000	         -0.03658056	          0.00000000	          0.00000000	         -0.00000000	          0.00000000	
          2.11500000	          6.37928644	        108.74823994	        -10.52053657	         -0.20298487	          0.00000000	         -0.02976324	         -0.00000000	          0.00000000	          0.00000000	          0.00000000	          0.00000000	          0.00000000	          0.00000000	         -0.06890229	          0.00000000	          0.00000000	         -0.00000000	          0.00000000	
          2.12000000	          5.13542496	        143.74925704	        -12.69473154	         -0.28795360	          0.00000000	         -0.04269268	         -0.00000000	          0.00000000	          0.00000000	          0.00000000	          0.00000000	          0.00000000	          0.00000000	         -0.10192673	          0.00000000	          0.00000000	         -0.00000000	          0.00000000	
          2.12500000	          2.82501956	        179.07503779	        -14.18914063	         -0.35748410	          0.00000000	         -0.05348099	         -0.00000000	          0.00000000	          0.00000000	          0.00000000	          0.00000000	          0.00000000	          0.00000000	         -0.13594019	          0.00000000	          0.00000000	          0.00000000	          0.00000000	
          2.13000000	         -0.82835793	        213.95970347	        -14.79018842	         -0.41133105	          0.00000000	         -0.06212808	         -0.00000000	          0.00000000	          0.00000000	          0.00000000	          0.00000000	          0.00000000	          0.00000000	         -0.17253367	          0.00000000	          0.00000000	          0.00000000	          0.00000000	
          2.13500000	         -5.95334845	        248.06514273	        -14.31841336	         -0.45054422	          0.00000000	         -0.06881407	         -0.00000000	          0.00000000	          0.00000000	          0.00000000	          0.00000000	          0.00000000	          0.00000000	         -0.21461704	          0.00000000	          0.00000000	          0.00000000	          0.00000000	
          2.14000000	        -12.50029857	        281.25753035	        -12.65127294	         -0.47692837	          0.00000000	         -0.07381427	         -0.00000000	          0.00000000	         -0.00000000	          0.00000000	          0.00000000	          0.00000000	          0.00000000	         -0.26582673	          0.00000000	          0.00000000	          0.00000000	          0.00000000	
          2.14500000	        -20.25189369	        313.51866319	         -9.74902202	         -0.49263628	          0.00000000	         -0.07743979	         -0.00000000	          0.00000000	         -0.00000000	         -0.00000000	          0.00000000	         -0.00000000	          0.00000000	         -0.32898922	          0.00000000	          0.00000000	          0.00000000	          0.00000000	
          2.15000000	        -28.88234950	        344.96739846	         -5.67079291	         -0.49988630	          0.00000000	         -0.07999797	         -0.00000000	         -0.00000000	         -0.00000000	         -0.00000000	          0.00000000	         -0.00000000	          0.00000000	         -0.40429859	          0.00000000	          0.00000000	          0.00000000	          0.00000000	
          2.15500000	        -38.05663698	        375.78085146	         -0.57838367	         -0.50078341	          0.00000000	         -0.08176313	         -0.00000000	         -0.00000000	         -0.00000000	         -0.00000000	          0.00000000	         -0.00000000	          0.00000000	         -0.48803636	          0.00000000	          0.00000000	          0.00000000	          0.00000000	
          2.16000000	        -47.51331909	        405.99800284	          5.26740415	         -0.49721561	          0.00000000	         -0.08295662	         -0.00000000	         -0.00000001	         -0.00000000	         -0.00000000	          0.00000000	         -0.00000000	          0.00000000	         -0.57149794	          0.00000000	          0.00000000	          0.00000000	          0.00000000	
          2.16500000	        -57.07626838	        435.41309417	         11.52136623	         -0.49079120	          0.00000000	         -0.08374342	         -0.00000000	         -0.00000001	         -0.00000000	         -0.00000000	          0.00000000	         -0.00000000	          0.00000000	         -0.64176682	          0.00000000	          0.00000000	          0.00000000	          0.00000000	
          2.17000000	        -66.59213070	        463.70019830	         17.80168654	         -0.48280549	          0.00000000	         -0.08424339	         -0.00000000	         -0.00000002	         -0.00000000	         -0.00000000	          0.00000000	         -0.00000000	          0.00000000	         -0.68465793	          0.00000000	          0.00000000	          0.00000000	          0.00000000	
          2.17500000	        -75.87131617	        490.68584807	         23.77483774	         -0.47424481	          0.00000000	         -0.08454121	          0.00000000	         -0.00000002	         -0.00000000	         -0.00000000	          0.00000000	         -0.00000000	          0.00000000	         -0.68883232	          0.00000000	          0.00000000	          0.00000000	          0.00000000	
          2.18000000	        -84.69810811	        516.51645110	         29.21154091	         -0.46581773	          0.00000000	         -0.08469209	          0.00000000	         -0.00000003	         -0.00000000	         -0.00000000	          0.00000000	         -0.00000000	          0.00000000	         -0.64853338	          0.00000000	          0.00000000	          0.00000000	          0.00000000	
          2.18500000	        -92.87897683	        541.58934397	         33.98588524	         -0.45799586	          0.00000000	         -0.08473288	          0.00000000	         -0.00000004	         -0.00000001	         -0.00000000	          0.00000000	         -0.00000000	          0.00000000	         -0.56476628	          0.00000000	          0.00000000	          0.00000000	          0.00000000	
          2.19000000	       -100.26582584	        566.37001047	         38.05781486	         -0.45105798	          0.00000000	         -0.08469021	          0.00000000	         -0.00000005	         -0.00000001	         -0.00000000	          0.00000000	         -0.00000000	          0.00000000	         -0.44409656	          0.00000000	          0.00000000	          0.00000000	          0.00000000	
          2.19500000	       -106.74789699	        591.24678766	         41.45452748	         -0.44513440	          0.00000000	         -0.08458548	          0.00000000	         -0.00000006	         -0.00000001	         -0.00000000	          0.00000000	         -0.00000000	          0.00000000	         -0.29562270	          0.00000000	          0.00000000	         -0.00000000	          0.00000000	
          2.20000000	       -112.23647182	        616.44858374	         44.24384557	         -0.44025000	          0.00000000	         -0.08443809	          0.00000000	         -0.00000006	         -0.00000000	         -0.00000000	          0.00000000	         -0.00000000	          0.00000000	         -0.12884942	          0.00000000	          0.00000000	         -0.00000000	          0.00000000	
